<?xml version="1.0" encoding="UTF-8"?> <svg xmlns="http://www.w3.org/2000/svg" width="49.587" height="58.181" viewBox="0 0 49.587 58.181"><path id="Path_274" data-name="Path 274" d="M430.487,1426.433l-2.223,2.885a4.346,4.346,0,0,1-3.17,1.691c-2.818.179-8.875-.551-17.1-5.314a53.788,53.788,0,0,1-24.555-30.852c-2.7-8.879-1.99-14.771-1.2-17.461a4.356,4.356,0,0,1,2.348-2.719l3.3-1.531a3.026,3.026,0,0,1,3.831,1.13l8.261,13.091a3.024,3.024,0,0,1-.944,4.172l-3.673,2.319a1.2,1.2,0,0,0-.516,1.339q.07.249.163.563A32.181,32.181,0,0,0,410,1414.5c.19.107.362.2.514.284a1.2,1.2,0,0,0,1.419-.207l3.073-3.073a3.026,3.026,0,0,1,4.278,0l10.945,10.945A3.026,3.026,0,0,1,430.487,1426.433Z" transform="translate(-381.529 -1372.852)" fill="#d82463"></path></svg> 